<svg xmlns="http://www.w3.org/2000/svg" baseProfile="basic" viewBox="0 0 64 64"><path d="M19.3,12L19.3,12H16.7l-0.611,3.549l-3.424,1.416l-2.939-2.076l-1.838,1.838l2.075,2.938L8.549,23.09L5,23.7V26.3	l3.549,0.611l1.414,3.425l-2.075,2.938l1.838,1.838l2.939-2.076l3.424,1.416L16.7,38H19.3l0.611-3.549l3.424-1.416l2.939,2.076	l1.838-1.838l-2.075-2.938l1.414-3.425L31,26.3V23.7l-3.549-0.611l-1.415-3.425l2.075-2.938l-1.838-1.838l-2.939,2.076l-3.424-1.416	L19.3,12z M22.113,10.661l0.468,2.717c0.135,0.053,0.271,0.104,0.403,0.161l2.247-1.587c0.348-0.246,0.752-0.366,1.153-0.366	c0.516,0,1.028,0.199,1.415,0.586l3.029,3.029c0.688,0.688,0.781,1.773,0.219,2.568l-1.587,2.247	c0.058,0.132,0.108,0.268,0.161,0.403l2.717,0.468C33.299,21.052,34,21.884,34,22.858v4.284c0,0.974-0.701,1.806-1.661,1.971	l-2.717,0.468c-0.053,0.135-0.104,0.271-0.161,0.403l1.587,2.247c0.562,0.795,0.469,1.88-0.219,2.568l-3.029,3.029	c-0.387,0.387-0.899,0.586-1.415,0.586c-0.401,0-0.805-0.121-1.153-0.366l-2.247-1.587c-0.132,0.058-0.268,0.108-0.403,0.161	l-0.468,2.717C21.948,40.299,21.116,41,20.142,41h-4.284c-0.974,0-1.806-0.701-1.971-1.661l-0.468-2.717	c-0.135-0.053-0.271-0.104-0.403-0.161l-2.247,1.587c-0.348,0.246-0.752,0.366-1.153,0.366c-0.516,0-1.028-0.199-1.415-0.586	l-3.029-3.029c-0.688-0.688-0.781-1.773-0.219-2.568l1.587-2.247c-0.058-0.132-0.108-0.268-0.161-0.403l-2.717-0.468	C2.701,28.948,2,28.116,2,27.142v-4.284c0-0.974,0.701-1.806,1.661-1.971l2.717-0.468c0.053-0.135,0.104-0.271,0.161-0.403	l-1.587-2.247c-0.562-0.795-0.469-1.88,0.219-2.568l3.029-3.029c0.387-0.387,0.899-0.586,1.415-0.586	c0.401,0,0.805,0.121,1.153,0.366l2.247,1.587c0.132-0.058,0.268-0.108,0.403-0.161l0.468-2.717C14.052,9.701,14.884,9,15.858,9	h4.284C21.116,9,21.948,9.701,22.113,10.661z"/><path d="M18,19c3.314,0,6,2.686,6,6s-2.686,6-6,6s-6-2.686-6-6S14.686,19,18,19z M18,28c1.657,0,3-1.343,3-3c0-1.657-1.343-3-3-3	s-3,1.343-3,3C15,26.657,16.343,28,18,28z"/><path d="M48.3,28L48.3,28H45.7l-0.52,3.02l-3.269,1.326l-2.478-1.75l-1.838,1.838l1.738,2.461l-1.374,3.297L35,38.7V41.3l2.963,0.51	l1.349,3.287l-1.716,2.47l1.838,1.838l2.478-1.75l3.269,1.326L45.7,52H48.3l0.524-3.047l3.158-1.329l2.585,1.78l1.838-1.838	l-1.809-2.562l1.295-3.17L59,41.3V38.7l-3.104-0.534l-1.301-3.171l1.809-2.562l-1.838-1.838l-2.543,1.796l-3.199-1.346L48.3,28z M51.113,26.661l0.386,2.245c0.055,0.023,0.11,0.044,0.164,0.067l1.86-1.314c0.348-0.246,0.752-0.366,1.153-0.366	c0.516,0,1.028,0.199,1.415,0.586l3.029,3.029c0.688,0.689,0.781,1.773,0.219,2.568l-1.338,1.894	c0.017,0.04,0.028,0.082,0.045,0.122l2.292,0.394C61.299,36.052,62,36.884,62,37.858v4.284c0,0.974-0.701,1.806-1.661,1.971	l-2.292,0.394c-0.016,0.04-0.028,0.082-0.044,0.122l1.338,1.894c0.562,0.795,0.469,1.88-0.219,2.568l-3.029,3.029	c-0.387,0.387-0.899,0.586-1.415,0.586c-0.401,0-0.805-0.121-1.153-0.366l-1.86-1.314c-0.054,0.023-0.11,0.045-0.164,0.067	l-0.386,2.245C50.948,54.299,50.116,55,49.142,55h-4.284c-0.974,0-1.806-0.701-1.971-1.661l-0.377-2.191	c-0.075-0.03-0.154-0.052-0.228-0.083l-1.806,1.275c-0.348,0.246-0.752,0.366-1.153,0.366c-0.516,0-1.028-0.199-1.415-0.586	l-3.029-3.029c-0.688-0.688-0.781-1.773-0.219-2.568l1.253-1.773c-0.038-0.088-0.071-0.179-0.107-0.268l-2.144-0.369	C32.701,43.948,32,43.116,32,42.142v-4.284c0-0.974,0.701-1.806,1.661-1.971l2.144-0.369c0.036-0.089,0.069-0.18,0.108-0.268	l-1.253-1.773c-0.562-0.795-0.469-1.88,0.219-2.568l3.029-3.029c0.387-0.387,0.899-0.586,1.415-0.586	c0.401,0,0.805,0.121,1.153,0.366l1.806,1.276c0.074-0.031,0.153-0.054,0.228-0.083l0.377-2.191C43.052,25.701,43.884,25,44.858,25	h4.284C50.116,25,50.948,25.701,51.113,26.661z"/><path d="M47,34c3.314,0,6,2.686,6,6s-2.686,6-6,6s-6-2.686-6-6S43.686,34,47,34z M47,43c1.657,0,3-1.343,3-3c0-1.657-1.343-3-3-3	s-3,1.343-3,3C44,41.657,45.343,43,47,43z"/></svg>